<?xml version="1.0" encoding="UTF-8"?>
<svg version="1.1" xmlns="http://www.w3.org/2000/svg" width="500" height="119">
<path d="M0 0 C0.9993457 0.02626465 1.99869141 0.0525293 3.02832031 0.07958984 C10.35509296 0.39537749 17.00924894 1.46995033 23.0625 5.8125 C30.61460142 16.25216961 29.37414813 30.97022976 29.37280273 43.26171875 C29.3749823 45.48196809 29.39318196 47.70171346 29.41210938 49.921875 C29.51998934 77.01462071 29.51998934 77.01462071 23.1875 84.75 C18.10662916 88.78864092 12.98484993 89.86304414 6.65966797 89.92700195 C4.99676224 89.94625481 4.99676224 89.94625481 3.30026245 89.96589661 C2.10547272 89.97328354 0.91068298 89.98067047 -0.3203125 89.98828125 C-2.17400955 90.00038887 -2.17400955 90.00038887 -4.06515503 90.01274109 C-6.68274537 90.02657282 -9.30035368 90.03729904 -11.91796875 90.04516602 C-15.90132178 90.05835472 -19.88405968 90.1062378 -23.8671875 90.15039062 C-26.41405642 90.16052103 -28.96093237 90.16903604 -31.5078125 90.17578125 C-32.69045685 90.19328934 -33.8731012 90.21079742 -35.09158325 90.22883606 C-43.37746521 90.20733668 -51.02312923 89.25516796 -57.3125 83.4375 C-61.3450478 76.21251852 -61.13316514 69.04160017 -61.1484375 60.94921875 C-61.1550943 59.71766556 -61.1617511 58.48611237 -61.16860962 57.21723938 C-61.17871194 54.61757902 -61.18342739 52.01789286 -61.18310547 49.41821289 C-61.18747371 45.46131205 -61.22380845 41.50553154 -61.26171875 37.54882812 C-61.2675885 35.01562879 -61.27155683 32.48242419 -61.2734375 29.94921875 C-61.28780853 28.77598557 -61.30217957 27.60275238 -61.31698608 26.39396667 C-61.27788974 19.2915174 -60.60407399 12.91785721 -56.8125 6.75 C-43.83537395 -4.59902347 -16.34913037 -0.54430823 0 0 Z M0.25 17.875 C-1.34240283 20.68512264 -1.26569325 22.57764724 -0.8125 25.75 C0.60416667 28.33333333 0.60416667 28.33333333 3.1875 29.75 C6.78221004 29.99838381 6.78221004 29.99838381 10.1875 28.75 C12.41306103 26.62454636 12.41306103 26.62454636 13.1875 23.75 C12.37545587 20.57564566 11.50569425 19.06819425 9.1875 16.75 C4.52521115 16.2859554 4.52521115 16.2859554 0.25 17.875 Z M-31.515625 37.5390625 C-35.36242364 42.73445147 -36.46875718 47.3866491 -35.8125 53.75 C-33.59479746 60.29222248 -30.89835611 64.92116049 -24.6875 68.125 C-18.65149777 70.58521873 -13.0317201 70.06695368 -7.0625 67.625 C-2.17874463 63.55520386 2.03031756 59.17879131 3.1875 52.75 C3.38736924 46.0543803 1.59973677 40.81547702 -2.8125 35.75 C-6.9392268 32.11680032 -11.77055605 30.86590275 -17.1875 30.52734375 C-22.77391209 31.0011912 -27.6577246 33.4864974 -31.515625 37.5390625 Z " fill="#087DFC" transform="translate(100.8125,13.25)"/>
<path d="M0 0 C1.11463623 0.04842041 2.22927246 0.09684082 3.37768555 0.14672852 C4.56015869 0.20272217 5.74263184 0.25871582 6.9609375 0.31640625 C17.7674835 0.778583 28.52101105 0.97821976 39.3359375 0.87890625 C39.55273897 5.82623229 39.74964549 10.77379394 39.92797852 15.72265625 C39.99149096 17.40679185 40.06048016 19.09073004 40.13500977 20.77441406 C40.24107074 23.19175001 40.32754939 25.60910703 40.41015625 28.02734375 C40.44751389 28.78260345 40.48487152 29.53786316 40.52336121 30.31600952 C40.5847168 32.43896484 40.5847168 32.43896484 40.3359375 35.87890625 C36.94344402 38.14056857 35.68392249 38.1240617 31.7109375 38.06640625 C30.72867188 38.05996094 29.74640625 38.05351563 28.734375 38.046875 C26.3359375 37.87890625 26.3359375 37.87890625 25.3359375 36.87890625 C25.24845543 34.95223118 25.22896416 33.02238764 25.23828125 31.09375 C25.24150391 29.92392578 25.24472656 28.75410156 25.24804688 27.54882812 C25.26061523 25.7012793 25.26061523 25.7012793 25.2734375 23.81640625 C25.27794922 22.58083984 25.28246094 21.34527344 25.28710938 20.07226562 C25.29894142 17.00776508 25.31542577 13.94335904 25.3359375 10.87890625 C22.3659375 10.54890625 19.3959375 10.21890625 16.3359375 9.87890625 C16.5628125 10.91015625 16.7896875 11.94140625 17.0234375 13.00390625 C17.38198336 17.44987492 16.76314355 19.19624879 14.3359375 22.87890625 C10.14597141 26.79855195 6.15503832 27.00770507 0.5859375 26.94140625 C-0.39890625 26.93238281 -1.38375 26.92335938 -2.3984375 26.9140625 C-3.14609375 26.90246094 -3.89375 26.89085938 -4.6640625 26.87890625 C-4.6640625 27.53890625 -4.6640625 28.19890625 -4.6640625 28.87890625 C-3.25253906 28.82669922 -3.25253906 28.82669922 -1.8125 28.7734375 C0.05535156 28.73283203 0.05535156 28.73283203 1.9609375 28.69140625 C3.19070313 28.65660156 4.42046875 28.62179688 5.6875 28.5859375 C10.55931841 28.97714347 13.87873369 30.42170244 17.3359375 33.87890625 C17.99217376 38.25890174 18.17802181 42.45102416 15.8984375 46.31640625 C7.24055407 51.59560346 -2.43483579 52.11367928 -12.33984375 50.421875 C-14.13374164 49.97897659 -15.90420826 49.44205961 -17.6640625 48.87890625 C-17.6640625 45.57890625 -17.6640625 42.27890625 -17.6640625 38.87890625 C-16.59027344 39.02328125 -15.51648438 39.16765625 -14.41015625 39.31640625 C-12.97398894 39.50414054 -11.53778926 39.69162734 -10.1015625 39.87890625 C-9.04485352 40.02199219 -9.04485352 40.02199219 -7.96679688 40.16796875 C-3.49038395 40.74557042 0.82254988 40.97380008 5.3359375 40.87890625 C5.3359375 40.21890625 5.3359375 39.55890625 5.3359375 38.87890625 C3.8509375 39.37390625 3.8509375 39.37390625 2.3359375 39.87890625 C0.04278387 39.86763768 -2.25047973 39.77405949 -4.5390625 39.62890625 C-5.75335938 39.561875 -6.96765625 39.49484375 -8.21875 39.42578125 C-11.80536161 38.85647782 -13.78241728 38.04788653 -16.6640625 35.87890625 C-18.6640625 32.87890625 -18.6640625 32.87890625 -18.4140625 30.50390625 C-17.6640625 27.87890625 -17.6640625 27.87890625 -16.4140625 25.31640625 C-16.1665625 24.51203125 -15.9190625 23.70765625 -15.6640625 22.87890625 C-16.13714844 22.27175781 -16.61023438 21.66460937 -17.09765625 21.0390625 C-18.99125642 18.4276887 -19.03970751 17.06530078 -18.9765625 13.87890625 C-18.97269531 13.03328125 -18.96882813 12.18765625 -18.96484375 11.31640625 C-18.64024233 8.68587003 -18.11036937 7.09341545 -16.6640625 4.87890625 C-15.078125 3.6484375 -15.078125 3.6484375 -13.2890625 2.69140625 C-12.70382812 2.36785156 -12.11859375 2.04429688 -11.515625 1.7109375 C-7.602068 -0.04768621 -4.26753045 -0.20201532 0 0 Z M-6.6640625 10.87890625 C-7.08072917 13.87890625 -7.08072917 13.87890625 -6.6640625 16.87890625 C-3.76826868 19.2511362 -3.76826868 19.2511362 -0.1015625 18.62890625 C3.38186362 18.19306185 3.38186362 18.19306185 5.3359375 15.87890625 C5.66927083 13.37890625 5.66927083 13.37890625 5.3359375 10.87890625 C3.5795044 8.7218511 3.5795044 8.7218511 1.4609375 8.61328125 C0.7596875 8.6184375 0.0584375 8.62359375 -0.6640625 8.62890625 C-1.3653125 8.62375 -2.0665625 8.61859375 -2.7890625 8.61328125 C-4.9076294 8.7218511 -4.9076294 8.7218511 -6.6640625 10.87890625 Z " fill="#252525" transform="translate(284.6640625,49.12109375)"/>
<path d="M0 0 C3.10797292 0.88799226 3.97957524 0.42993824 6.9375 -0.6875 C11.73901816 -2.47708414 14.63659453 -2.49710137 19.625 -1.25 C24.14777633 1.40467306 25.28154832 3.7887023 26.625 8.75 C26.85205078 11.81787109 26.85205078 11.81787109 26.8203125 15.0234375 C26.81386719 16.17714844 26.80742187 17.33085938 26.80078125 18.51953125 C26.78402344 19.70933594 26.76726562 20.89914063 26.75 22.125 C26.74097656 23.33800781 26.73195312 24.55101563 26.72265625 25.80078125 C26.69916588 28.78405773 26.66631682 31.76692594 26.625 34.75 C23.61009443 35.75496852 21.58318308 35.85335303 18.4375 35.8125 C17.53644531 35.80347656 16.63539063 35.79445312 15.70703125 35.78515625 C15.01996094 35.77355469 14.33289063 35.76195312 13.625 35.75 C13.59994385 35.03344238 13.5748877 34.31688477 13.54907227 33.57861328 C13.43330249 30.34388486 13.31049031 27.10946159 13.1875 23.875 C13.14818359 22.74707031 13.10886719 21.61914062 13.06835938 20.45703125 C13.02646484 19.38066406 12.98457031 18.30429688 12.94140625 17.1953125 C12.88641968 15.70281982 12.88641968 15.70281982 12.83032227 14.18017578 C12.77540468 11.74220499 12.77540468 11.74220499 11.625 9.75 C8.985 9.75 6.345 9.75 3.625 9.75 C3.625 18 3.625 26.25 3.625 34.75 C0.49610801 35.532223 -1.5150091 35.86433318 -4.625 35.8125 C-6.48125 35.7815625 -6.48125 35.7815625 -8.375 35.75 C-8.40005615 35.03344238 -8.4251123 34.31688477 -8.45092773 33.57861328 C-8.56669751 30.34388486 -8.68950969 27.10946159 -8.8125 23.875 C-8.85181641 22.74707031 -8.89113281 21.61914062 -8.93164062 20.45703125 C-8.97353516 19.38066406 -9.01542969 18.30429688 -9.05859375 17.1953125 C-9.09525146 16.20031738 -9.13190918 15.20532227 -9.16967773 14.18017578 C-9.22459532 11.74220499 -9.22459532 11.74220499 -10.375 9.75 C-12.685 10.08 -14.995 10.41 -17.375 10.75 C-17.705 18.67 -18.035 26.59 -18.375 34.75 C-22.70177122 35.83169281 -25.94208416 35.8953415 -30.375 35.75 C-31.375 34.75 -31.375 34.75 -31.48852539 31.33178711 C-31.48836628 29.81363012 -31.48267226 28.29546771 -31.47265625 26.77734375 C-31.4712413 25.97970108 -31.46982635 25.18205841 -31.46836853 24.36024475 C-31.46275316 21.80262565 -31.45019812 19.24509282 -31.4375 16.6875 C-31.43248698 14.95768355 -31.42792373 13.22786574 -31.42382812 11.49804688 C-31.41277875 7.24866447 -31.39550386 2.99934688 -31.375 -1.25 C-27.415 -1.25 -23.455 -1.25 -19.375 -1.25 C-19.045 -0.59 -18.715 0.07 -18.375 0.75 C-17.80652344 0.52183594 -17.23804688 0.29367188 -16.65234375 0.05859375 C-10.671509 -2.16799415 -5.94490941 -3.12889969 0 0 Z " fill="#252525" transform="translate(194.375,51.25)"/>
<path d="M0 0 C1.05623906 2.24321359 1.95943763 4.4117207 2.8125 6.73046875 C3.06749268 7.39911453 3.32248535 8.06776031 3.58520508 8.75666809 C4.39932634 10.89692921 5.20001085 13.04192141 6 15.1875 C6.80280707 17.31406927 7.60834327 19.43958401 8.41479492 21.56477356 C8.91510221 22.88607287 9.41283107 24.20835258 9.9074707 25.53178406 C11.08015359 28.65599032 12.3137251 31.72963087 13.67578125 34.7746582 C15 38 15 38 15 41 C15.99 41.495 15.99 41.495 17 42 C17 43.98 17 45.96 17 48 C12.71 48 8.42 48 4 48 C0 40.375 0 40.375 0 37 C-5.28 37 -10.56 37 -16 37 C-16.268125 38.258125 -16.53625 39.51625 -16.8125 40.8125 C-17.50816503 44.07677438 -18.19438714 46.06509458 -21 48 C-23.91796875 48.29296875 -23.91796875 48.29296875 -27.1875 48.1875 C-28.27417969 48.16042969 -29.36085938 48.13335937 -30.48046875 48.10546875 C-31.72763672 48.05326172 -31.72763672 48.05326172 -33 48 C-33 46.02 -33 44.04 -33 42 C-32.34 42 -31.68 42 -31 42 C-30.90074219 41.34644531 -30.80148437 40.69289062 -30.69921875 40.01953125 C-29.78486815 36.07096691 -28.31730276 32.44408529 -26.8125 28.6875 C-26.17877243 27.08499699 -25.54597955 25.48212407 -24.9140625 23.87890625 C-24.59469727 23.06953613 -24.27533203 22.26016602 -23.94628906 21.42626953 C-22.22570697 17.01472544 -20.58600624 12.57277874 -18.9543457 8.12768555 C-18.31898453 6.41241194 -17.66060493 4.70571055 -17 3 C-16.73703125 2.21109375 -16.4740625 1.4221875 -16.203125 0.609375 C-15 -1 -15 -1 -12.28515625 -1.6796875 C-11.22167969 -1.74414062 -10.15820312 -1.80859375 -9.0625 -1.875 C-8.00160156 -1.95492187 -6.94070313 -2.03484375 -5.84765625 -2.1171875 C-3 -2 -3 -2 0 0 Z M-9 14 C-9.20496094 14.69867188 -9.40992188 15.39734375 -9.62109375 16.1171875 C-9.89050781 17.02726562 -10.15992188 17.93734375 -10.4375 18.875 C-10.70433594 19.77992187 -10.97117187 20.68484375 -11.24609375 21.6171875 C-12 24 -12 24 -13 26 C-9.7 26 -6.4 26 -3 26 C-4.32 22.04 -5.64 18.08 -7 14 C-7.66 14 -8.32 14 -9 14 Z " fill="#252525" transform="translate(441,39)"/>
<path d="M0 0 C2.17209837 1.74700991 3.88223168 3.3699321 5.13671875 5.87890625 C5.23427159 8.0451315 5.26748984 10.21439274 5.26953125 12.3828125 C5.27082031 13.68025391 5.27210938 14.97769531 5.2734375 16.31445312 C5.27134277 16.99113037 5.26924805 17.66780762 5.26708984 18.36499023 C5.26173077 20.4367604 5.26704393 22.50831464 5.2734375 24.58007812 C5.27214844 25.87623047 5.27085937 27.17238281 5.26953125 28.5078125 C5.26840332 29.7047876 5.26727539 30.9017627 5.26611328 32.13500977 C5.13671875 34.87890625 5.13671875 34.87890625 4.13671875 35.87890625 C2.30555992 35.97741796 0.47051942 36.00863254 -1.36328125 36.00390625 C-2.36359375 36.00648437 -3.36390625 36.0090625 -4.39453125 36.01171875 C-6.86328125 35.87890625 -6.86328125 35.87890625 -7.86328125 34.87890625 C-8.00862777 33.19637041 -8.09045747 31.50824867 -8.14453125 29.8203125 C-8.18191406 28.79486328 -8.21929687 27.76941406 -8.2578125 26.71289062 C-8.31001953 25.09350586 -8.31001953 25.09350586 -8.36328125 23.44140625 C-8.4319974 21.31756827 -8.50471458 19.19385478 -8.58203125 17.0703125 C-8.61232422 16.12357666 -8.64261719 15.17684082 -8.67382812 14.20141602 C-8.71989627 11.85483131 -8.71989627 11.85483131 -9.86328125 9.87890625 C-12.17328125 9.87890625 -14.48328125 9.87890625 -16.86328125 9.87890625 C-17.19328125 10.53890625 -17.52328125 11.19890625 -17.86328125 11.87890625 C-18.52328125 11.87890625 -19.18328125 11.87890625 -19.86328125 11.87890625 C-19.85804443 12.57040771 -19.85280762 13.26190918 -19.84741211 13.97436523 C-19.82670625 17.08836977 -19.81364162 20.20235986 -19.80078125 23.31640625 C-19.79240234 24.40501953 -19.78402344 25.49363281 -19.77539062 26.61523438 C-19.77216797 27.64970703 -19.76894531 28.68417969 -19.765625 29.75 C-19.76038818 30.7083374 -19.75515137 31.6666748 -19.74975586 32.65405273 C-19.86328125 34.87890625 -19.86328125 34.87890625 -20.86328125 35.87890625 C-22.69444008 35.97741796 -24.52948058 36.00863254 -26.36328125 36.00390625 C-27.36359375 36.00648437 -28.36390625 36.0090625 -29.39453125 36.01171875 C-31.86328125 35.87890625 -31.86328125 35.87890625 -32.86328125 34.87890625 C-32.95183286 32.21264595 -32.97852798 29.57243511 -32.9609375 26.90625 C-32.95952255 26.10860733 -32.9581076 25.31096466 -32.95664978 24.489151 C-32.95103441 21.9315319 -32.93847937 19.37399907 -32.92578125 16.81640625 C-32.92076823 15.0865898 -32.91620498 13.35677199 -32.91210938 11.62695312 C-32.90106 7.37757072 -32.88378511 3.12825313 -32.86328125 -1.12109375 C-28.90328125 -1.12109375 -24.94328125 -1.12109375 -20.86328125 -1.12109375 C-20.53328125 -0.46109375 -20.20328125 0.19890625 -19.86328125 0.87890625 C-19.04537109 0.53666016 -19.04537109 0.53666016 -18.2109375 0.1875 C-12.07955362 -2.14976257 -5.95179 -3.58105604 0 0 Z " fill="#242424" transform="translate(362.86328125,51.12109375)"/>
<path d="M0 0 C2.54782781 2.2225732 4.48933666 3.97867331 6 7 C6.09719073 9.02028352 6.13076517 11.04378731 6.1328125 13.06640625 C6.13410156 14.27361328 6.13539063 15.48082031 6.13671875 16.72460938 C6.13285156 17.99111328 6.12898438 19.25761719 6.125 20.5625 C6.13080078 22.46805664 6.13080078 22.46805664 6.13671875 24.41210938 C6.13542969 25.61802734 6.13414062 26.82394531 6.1328125 28.06640625 C6.13168457 29.17959229 6.13055664 30.29277832 6.12939453 31.43969727 C6 34 6 34 5 35 C3.37747508 35.09886353 1.75052727 35.12971167 0.125 35.125 C-0.75929687 35.12757812 -1.64359375 35.13015625 -2.5546875 35.1328125 C-5 35 -5 35 -8 34 C-9.485 34.495 -9.485 34.495 -11 35 C-23.80949576 35.96117429 -23.80949576 35.96117429 -29 32 C-31.36170276 28.13539549 -31.3972947 24.44970065 -31 20 C-29.17770283 15.7799434 -27.12429692 13.94573685 -23 12 C-20.14327264 11.79015225 -17.52798778 11.71350177 -14.6875 11.8125 C-13.94693359 11.82603516 -13.20636719 11.83957031 -12.44335938 11.85351562 C-10.62858925 11.88864021 -8.81419712 11.94244028 -7 12 C-7.66 10.68 -8.32 9.36 -9 8 C-15.11090483 7.90054585 -20.97403427 7.9287172 -27 9 C-27 6.03 -27 3.06 -27 0 C-18.21866303 -3.87411925 -8.58351727 -4.65857561 0 0 Z M-19 22 C-18.6814823 24.10820797 -18.6814823 24.10820797 -18 26 C-13.58937864 27.0257259 -11.07369424 27.03684712 -7 25 C-7 23.35 -7 21.7 -7 20 C-8.62463842 19.94604522 -10.24978541 19.90722805 -11.875 19.875 C-12.77992188 19.85179688 -13.68484375 19.82859375 -14.6171875 19.8046875 C-17.18806994 19.75675164 -17.18806994 19.75675164 -19 22 Z " fill="#222222" transform="translate(255,52)"/>
<path d="M0 0 C3.36993176 2.66231615 3.68574455 3.87061138 5.4375 8.25 C5.4375 12.21 5.4375 16.17 5.4375 20.25 C-2.4825 20.25 -10.4025 20.25 -18.5625 20.25 C-14.83232566 23.98017434 -13.44561629 24.17757245 -8.3125 24.375 C-4.32368246 24.24203942 -0.51248433 23.80438377 3.4375 23.25 C3.4375 26.22 3.4375 29.19 3.4375 32.25 C-3.56175047 35.64110972 -12.99481924 35.33052663 -20.46875 33.5625 C-25.44773529 31.57090588 -28.1140002 29.1469996 -30.5625 24.25 C-32.49504721 17.82558631 -32.23443048 11.21522945 -29.6015625 5.0390625 C-27.15767854 0.83117207 -23.73706068 -1.24332677 -19.375 -3.125 C-12.32051183 -4.28147347 -6.00087712 -4.23334604 0 0 Z M-18.5625 8.25 C-18.5625 9.57 -18.5625 10.89 -18.5625 12.25 C-14.6025 12.25 -10.6425 12.25 -6.5625 12.25 C-6.5625 10.6 -6.5625 8.95 -6.5625 7.25 C-10.78789566 5.13730217 -14.75850662 5.71400441 -18.5625 8.25 Z " fill="#262626" transform="translate(403.5625,52.75)"/>
<path d="M0 0 C0.0252689 6.81761894 0.04283244 13.63522589 0.05493164 20.45288086 C0.05997333 22.77417451 0.06680651 25.09546497 0.07543945 27.41674805 C0.08751225 30.74528795 0.09322979 34.07378602 0.09765625 37.40234375 C0.10281754 38.44712387 0.10797882 39.49190399 0.11329651 40.56834412 C0.11337204 41.52926468 0.11344757 42.49018524 0.11352539 43.48022461 C0.115746 44.33071884 0.11796661 45.18121307 0.12025452 46.05747986 C0 48 0 48 -1 49 C-2.99799572 49.09873816 -4.99957158 49.12971799 -7 49.125 C-8.093125 49.12757812 -9.18625 49.13015625 -10.3125 49.1328125 C-13 49 -13 49 -14 48 C-14.09311889 46.49581261 -14.11746028 44.98728644 -14.11352539 43.48022461 C-14.11344986 42.51930405 -14.11337433 41.55838348 -14.11329651 40.56834412 C-14.10813522 39.523564 -14.10297394 38.47878387 -14.09765625 37.40234375 C-14.0962413 36.33834854 -14.09482635 35.27435333 -14.09336853 34.17811584 C-14.08775064 30.76454917 -14.07519511 27.351047 -14.0625 23.9375 C-14.05748731 21.62955824 -14.052924 19.32161545 -14.04882812 17.01367188 C-14.0377754 11.34242574 -14.02101987 5.67121747 -14 0 C-12.2300132 -0.19532961 -10.45895721 -0.38098882 -8.6875 -0.5625 C-7.70136719 -0.66691406 -6.71523437 -0.77132812 -5.69921875 -0.87890625 C-3 -1 -3 -1 0 0 Z " fill="#2F2F2F" transform="translate(157,38)"/>
<path d="M0 0 C0 15.84 0 31.68 0 48 C-2.62329684 49.31164842 -4.63698625 49.13262846 -7.5625 49.125 C-8.55378906 49.12757812 -9.54507812 49.13015625 -10.56640625 49.1328125 C-13 49 -13 49 -14 48 C-14.09311889 46.49581261 -14.11746028 44.98728644 -14.11352539 43.48022461 C-14.11344986 42.51930405 -14.11337433 41.55838348 -14.11329651 40.56834412 C-14.10813522 39.523564 -14.10297394 38.47878387 -14.09765625 37.40234375 C-14.0962413 36.33834854 -14.09482635 35.27435333 -14.09336853 34.17811584 C-14.08775064 30.76454917 -14.07519511 27.351047 -14.0625 23.9375 C-14.05748731 21.62955824 -14.052924 19.32161545 -14.04882812 17.01367188 C-14.0377754 11.34242574 -14.02101987 5.67121747 -14 0 C-12.2300132 -0.19532961 -10.45895721 -0.38098882 -8.6875 -0.5625 C-7.70136719 -0.66691406 -6.71523438 -0.77132812 -5.69921875 -0.87890625 C-3 -1 -3 -1 0 0 Z " fill="#030303" transform="translate(477,38)"/>
<path d="M0 0 C1.11463623 0.04842041 2.22927246 0.09684082 3.37768555 0.14672852 C4.56015869 0.20272217 5.74263184 0.25871582 6.9609375 0.31640625 C17.7674835 0.778583 28.52101105 0.97821976 39.3359375 0.87890625 C39.55273897 5.82623229 39.74964549 10.77379394 39.92797852 15.72265625 C39.99149096 17.40679185 40.06048016 19.09073004 40.13500977 20.77441406 C40.24107074 23.19175001 40.32754939 25.60910703 40.41015625 28.02734375 C40.44751389 28.78260345 40.48487152 29.53786316 40.52336121 30.31600952 C40.5847168 32.43896484 40.5847168 32.43896484 40.3359375 35.87890625 C36.94344402 38.14056857 35.68392249 38.1240617 31.7109375 38.06640625 C30.72867188 38.05996094 29.74640625 38.05351563 28.734375 38.046875 C26.3359375 37.87890625 26.3359375 37.87890625 25.3359375 36.87890625 C25.24845543 34.95223118 25.22896416 33.02238764 25.23828125 31.09375 C25.24150391 29.92392578 25.24472656 28.75410156 25.24804688 27.54882812 C25.26061523 25.7012793 25.26061523 25.7012793 25.2734375 23.81640625 C25.27794922 22.58083984 25.28246094 21.34527344 25.28710938 20.07226562 C25.29894142 17.00776508 25.31542577 13.94335904 25.3359375 10.87890625 C22.3659375 10.54890625 19.3959375 10.21890625 16.3359375 9.87890625 C16.5421875 10.97203125 16.7484375 12.06515625 16.9609375 13.19140625 C17.3359375 16.87890625 17.3359375 16.87890625 15.3359375 19.87890625 C15.0059375 16.24890625 14.6759375 12.61890625 14.3359375 8.87890625 C15.9859375 8.87890625 17.6359375 8.87890625 19.3359375 8.87890625 C19.3359375 6.56890625 19.3359375 4.25890625 19.3359375 1.87890625 C3.9909375 2.37390625 3.9909375 2.37390625 -11.6640625 2.87890625 C-8.19339998 -0.59175627 -4.72143901 -0.22350233 0 0 Z " fill="#424242" transform="translate(284.6640625,49.12109375)"/>
<path d="M0 0 C2.67983956 1.67489973 3.62504169 2.84305627 4.59375 5.83203125 C5.38928386 9.83264864 5.18176761 11.63646478 3.3125 15.375 C-0.12977099 19.28244275 -0.12977099 19.28244275 -3 20 C-6.96765616 20.05738346 -10.03481301 19.59396122 -13.4375 17.5 C-15.74748221 13.80402847 -16.46601209 10.34443527 -16 6 C-12.19250556 -1.22524535 -7.3014153 -1.63697211 0 0 Z " fill="#1A84F9" transform="translate(90,54)"/>
<path d="M0 0 C0 15.84 0 31.68 0 48 C-2.62329684 49.31164842 -4.63698625 49.13262846 -7.5625 49.125 C-8.55378906 49.12757812 -9.54507812 49.13015625 -10.56640625 49.1328125 C-13 49 -13 49 -14 48 C-14.09311889 46.49581261 -14.11746028 44.98728644 -14.11352539 43.48022461 C-14.11344986 42.51930405 -14.11337433 41.55838348 -14.11329651 40.56834412 C-14.10813522 39.523564 -14.10297394 38.47878387 -14.09765625 37.40234375 C-14.0962413 36.33834854 -14.09482635 35.27435333 -14.09336853 34.17811584 C-14.08775064 30.76454917 -14.07519511 27.351047 -14.0625 23.9375 C-14.05748731 21.62955824 -14.052924 19.32161545 -14.04882812 17.01367188 C-14.0377754 11.34242574 -14.02101987 5.67121747 -14 0 C-12.2300132 -0.19532961 -10.45895721 -0.38098882 -8.6875 -0.5625 C-7.70136719 -0.66691406 -6.71523438 -0.77132812 -5.69921875 -0.87890625 C-3 -1 -3 -1 0 0 Z M-13 1 C-13.02513587 5.3009404 -13.04306094 9.60183937 -13.05493164 13.90283203 C-13.05989187 15.35921984 -13.06666215 16.81560285 -13.07543945 18.27197266 C-13.13194643 27.90475082 -12.84225236 37.39623406 -12 47 C-8.7 47 -5.4 47 -2 47 C-2 31.82 -2 16.64 -2 1 C-5.63 1 -9.26 1 -13 1 Z " fill="#ADADAD" transform="translate(477,38)"/>
<path d="M0 0 C4.95 0 9.9 0 15 0 C15 3.3 15 6.6 15 10 C10.05 10 5.1 10 0 10 C0 6.7 0 3.4 0 0 Z " fill="#444444" transform="translate(309,36)"/>
<path d="M0 0 C2.02408755 0.09002398 4.04544287 0.24641038 6.0625 0.4375 C7.16722656 0.53933594 8.27195312 0.64117188 9.41015625 0.74609375 C10.26480469 0.82988281 11.11945313 0.91367187 12 1 C12 1.33 12 1.66 12 2 C10.88625 2.12375 9.7725 2.2475 8.625 2.375 C4.96896323 2.6465813 4.96896323 2.6465813 3 5 C2.55537992 9.12830046 2.55537992 9.12830046 4.1875 12.8125 C6.42031739 14.27538036 8.37344067 14.64505955 11 15 C11 15.33 11 15.66 11 16 C8.36 16 5.72 16 3 16 C2.67 16.99 2.34 17.98 2 19 C1.01 18.67 0.02 18.34 -1 18 C-1 18.66 -1 19.32 -1 20 C0.32 20.66 1.64 21.32 3 22 C3 22.99 3 23.98 3 25 C2.49210937 24.59007813 1.98421875 24.18015625 1.4609375 23.7578125 C-2.5640887 20.60713656 -5.95184246 18.26203939 -11 17 C-7.25 15 -7.25 15 -5 15 C-5 15.66 -5 16.32 -5 17 C-3.02 16.34 -1.04 15.68 1 15 C0.34 14.34 -0.32 13.68 -1 13 C-0.34 13 0.32 13 1 13 C1 9.37 1 5.74 1 2 C0.34 1.67 -0.32 1.34 -1 1 C-0.67 0.67 -0.34 0.34 0 0 Z " fill="#4B98F3" transform="translate(98,28)"/>
<path d="M0 0 C2 2 2 2 2.24291992 4.68969727 C2.23675659 6.36116821 2.23675659 6.36116821 2.23046875 8.06640625 C2.22853516 9.27361328 2.22660156 10.48082031 2.22460938 11.72460938 C2.20624023 13.62436523 2.20624023 13.62436523 2.1875 15.5625 C2.18685547 16.83287109 2.18621094 18.10324219 2.18554688 19.41210938 C2.14010053 28.85989947 2.14010053 28.85989947 1 30 C-4.03761016 30.31718286 -9.09961113 30.30677037 -14 29 C-13.505 27.515 -13.505 27.515 -13 26 C-11.35 26 -9.7 26 -8 26 C-8 26.66 -8 27.32 -8 28 C-5.03 28 -2.06 28 1 28 C0.67 18.76 0.34 9.52 0 0 Z " fill="#848484" transform="translate(259,57)"/>
<path d="M0 0 C0.515625 0.2475 1.03125 0.495 1.5625 0.75 C0.5725 1.08 -0.4175 1.41 -1.4375 1.75 C-1.7675 2.74 -2.0975 3.73 -2.4375 4.75 C-3.4275 4.75 -4.4175 4.75 -5.4375 4.75 C-5.746875 5.36875 -6.05625 5.9875 -6.375 6.625 C-7.0625 8 -7.75 9.375 -8.4375 10.75 C-9.4275 10.75 -10.4175 10.75 -11.4375 10.75 C-12.0975 12.07 -12.7575 13.39 -13.4375 14.75 C-12.92722699 10.36165213 -12.19717595 7.24558954 -9.4375 3.75 C-6.50505825 1.50629155 -3.82326692 -0.39212994 0 0 Z " fill="#3491F4" transform="translate(54.4375,15.25)"/>
<path d="M0 0 C0.33 0 0.66 0 1 0 C1.2421875 2.26171875 1.2421875 2.26171875 1 5 C-0.6796875 7.01953125 -0.6796875 7.01953125 -2.875 8.8125 C-3.59429687 9.41707031 -4.31359375 10.02164063 -5.0546875 10.64453125 C-7 12 -7 12 -9 12 C-9.33 12.99 -9.66 13.98 -10 15 C-13.3 14.67 -16.6 14.34 -20 14 C-20 13.67 -20 13.34 -20 13 C-19.21496094 12.87625 -18.42992188 12.7525 -17.62109375 12.625 C-10.54149708 11.23514053 -6.62741858 9.61538632 -2.20703125 3.83984375 C-0.95958251 2.01641757 -0.95958251 2.01641757 0 0 Z " fill="#3F96F2" transform="translate(102,70)"/>
<path d="M0 0 C2.02408755 0.09002398 4.04544287 0.24641038 6.0625 0.4375 C7.71958984 0.59025391 7.71958984 0.59025391 9.41015625 0.74609375 C10.26480469 0.82988281 11.11945313 0.91367187 12 1 C12 1.33 12 1.66 12 2 C10.88625 2.12375 9.7725 2.2475 8.625 2.375 C4.96896323 2.6465813 4.96896323 2.6465813 3 5 C2.75787127 6.98128508 2.75787127 6.98128508 2.875 9.125 C2.936875 11.043125 2.936875 11.043125 3 13 C1.68 13.33 0.36 13.66 -1 14 C-0.34 13.67 0.32 13.34 1 13 C1 9.37 1 5.74 1 2 C0.34 1.67 -0.32 1.34 -1 1 C-0.67 0.67 -0.34 0.34 0 0 Z " fill="#57A2F2" transform="translate(98,28)"/>
<path d="M0 0 C-0.8125 2.4375 -0.8125 2.4375 -2 5 C-2.99 5.33 -3.98 5.66 -5 6 C-5.08948558 10.47427924 -4.85743651 14.60563789 -4 19 C-6.14005895 17.27778897 -6.93462864 16.42104781 -7.36328125 13.66015625 C-7.34652344 12.80292969 -7.32976562 11.94570313 -7.3125 11.0625 C-7.30863281 10.20785156 -7.30476563 9.35320313 -7.30078125 8.47265625 C-6.97975439 5.8335653 -6.43803996 4.22679766 -5 2 C-2 0 -2 0 0 0 Z " fill="#777777" transform="translate(273,52)"/>
<path d="M0 0 C0.66 0 1.32 0 2 0 C2 0.66 2 1.32 2 2 C2.66 2 3.32 2 4 2 C5.4606285 4.64738916 6 5.89448334 6 9 C4.35 9 2.7 9 1 9 C0.67 6.03 0.34 3.06 0 0 Z " fill="#318EF6" transform="translate(74,60)"/>
<path d="M0 0 C0.99 0.33 1.98 0.66 3 1 C3.33 4.96 3.66 8.92 4 13 C3.34 13 2.68 13 2 13 C1.67 13.66 1.34 14.32 1 15 C1.01160156 14.41992188 1.02320312 13.83984375 1.03515625 13.2421875 C1.08762174 8.7001754 0.91751063 4.47286431 0 0 Z " fill="#4093ED" transform="translate(102,55)"/>
<path d="M0 0 C0.66 0.99 1.32 1.98 2 3 C4.36284864 3.47790518 4.36284864 3.47790518 7 3.375 C7.886875 3.38273437 8.77375 3.39046875 9.6875 3.3984375 C10.450625 3.26695313 11.21375 3.13546875 12 3 C12.66 2.01 13.32 1.02 14 0 C14 1.65 14 3.3 14 5 C9.05 5 4.1 5 -1 5 C-0.67 3.35 -0.34 1.7 0 0 Z " fill="#ABABAB" transform="translate(384,61)"/>
<path d="M0 0 C0.66 0.66 1.32 1.32 2 2 C1.25234375 2.04898438 0.5046875 2.09796875 -0.265625 2.1484375 C-1.25046875 2.22320312 -2.2353125 2.29796875 -3.25 2.375 C-4.71179688 2.47941406 -4.71179688 2.47941406 -6.203125 2.5859375 C-8.89633189 2.98465249 -10.66963279 3.63507063 -13 5 C-12.67 3.68 -12.34 2.36 -12 1 C-10.04310341 0.77857745 -8.08438048 0.5732432 -6.125 0.375 C-4.48917969 0.20097656 -4.48917969 0.20097656 -2.8203125 0.0234375 C-1.88960938 0.01570313 -0.95890625 0.00796875 0 0 Z " fill="#787878" transform="translate(438,37)"/>
<path d="M0 0 C0.33 0 0.66 0 1 0 C1.375 2.1875 1.375 2.1875 1 5 C-0.83961648 6.99022836 -2.79186148 8.38989899 -5 10 C-5.66 9.67 -6.32 9.34 -7 9 C-6.57847656 8.51789063 -6.15695313 8.03578125 -5.72265625 7.5390625 C-5.17480469 6.90742187 -4.62695312 6.27578125 -4.0625 5.625 C-3.51722656 4.99851562 -2.97195312 4.37203125 -2.41015625 3.7265625 C-0.93041376 2.04367666 -0.93041376 2.04367666 0 0 Z " fill="#73B1F0" transform="translate(102,70)"/>
<path d="M0 0 C0.33 0 0.66 0 1 0 C1 2.64 1 5.28 1 8 C0.34 8 -0.32 8 -1 8 C-1.625 5.125 -1.625 5.125 -2 2 C-1.34 1.34 -0.68 0.68 0 0 Z " fill="#007DFD" transform="translate(92,59)"/>
<path d="M0 0 C2.83374881 3.20336822 3.5205537 5.78087253 4 10 C1 8 1 8 0.48828125 6.0546875 C0.32552083 4.03645833 0.16276042 2.01822917 0 0 Z " fill="#8B8B8B" transform="translate(446,55)"/>
<path d="M0 0 C-0.61875 0.28875 -1.2375 0.5775 -1.875 0.875 C-4.13325765 1.93720042 -4.13325765 1.93720042 -6 4 C-8.125 3.625 -8.125 3.625 -10 3 C-6.68152292 -0.06320961 -4.44849969 -0.3033068 0 0 Z " fill="#68A7EE" transform="translate(87,53)"/>
<path d="M0 0 C2.31 0 4.62 0 7 0 C7 0.33 7 0.66 7 1 C4.69 1 2.38 1 0 1 C0 0.67 0 0.34 0 0 Z " fill="#FDFDFD" transform="translate(237,60)"/>
<path d="M0 0 C1 4 1 4 1 4 Z " fill="#FEFEFE" transform="translate(222,72)"/>
<path d="M0 0 C2 1 2 1 2 1 Z " fill="#FEFEFE" transform="translate(292,76)"/>
<path d="" fill="#FEFEFE" transform="translate(0,0)"/>
<path d="M0 0 C2 1 2 1 2 1 Z " fill="#FEFEFE" transform="translate(302,60)"/>
<path d="" fill="#FEFEFE" transform="translate(0,0)"/>
<path d="" fill="#FEFEFE" transform="translate(0,0)"/>
<path d="" fill="#FEFEFE" transform="translate(0,0)"/>
<path d="" fill="#FEFEFE" transform="translate(0,0)"/>
<path d="" fill="#FEFEFE" transform="translate(0,0)"/>
<path d="" fill="#FEFEFE" transform="translate(0,0)"/>
<path d="" fill="#FEFEFE" transform="translate(0,0)"/>
<path d="" fill="#FEFEFE" transform="translate(0,0)"/>
<path d="" fill="#FDFDFD" transform="translate(0,0)"/>
<path d="" fill="#FEFEFE" transform="translate(0,0)"/>
</svg>
